<?xml version="1.0" encoding="UTF-8" standalone="no"?>
<!-- Created with Inkscape (http://www.inkscape.org/) -->

<svg
   xmlns:dc="http://purl.org/dc/elements/1.1/"
   xmlns:cc="http://creativecommons.org/ns#"
   xmlns:rdf="http://www.w3.org/1999/02/22-rdf-syntax-ns#"
   xmlns:svg="http://www.w3.org/2000/svg"
   xmlns="http://www.w3.org/2000/svg"
   xmlns:sodipodi="http://sodipodi.sourceforge.net/DTD/sodipodi-0.dtd"
   xmlns:inkscape="http://www.inkscape.org/namespaces/inkscape"
   width="100mm"
   height="100mm"
   viewBox="0 0 100 100"
   version="1.1"
   id="svg8"
   sodipodi:docname="ask.svg"
   inkscape:version="0.92.2 2405546, 2018-03-11"
   inkscape:export-filename="/home/pet/ask.svg.png"
   inkscape:export-xdpi="101.6"
   inkscape:export-ydpi="101.6">
  <defs
     id="defs2" />
  <sodipodi:namedview
     id="base"
     pagecolor="#ffffff"
     bordercolor="#666666"
     borderopacity="1.0"
     inkscape:pageopacity="0.0"
     inkscape:pageshadow="2"
     inkscape:zoom="2"
     inkscape:cx="5.251263"
     inkscape:cy="153.38296"
     inkscape:document-units="mm"
     inkscape:current-layer="layer1"
     showgrid="false"
     inkscape:window-width="1920"
     inkscape:window-height="1053"
     inkscape:window-x="0"
     inkscape:window-y="27"
     inkscape:window-maximized="1"
     inkscape:snap-bbox="true"
     inkscape:bbox-paths="true"
     inkscape:snap-bbox-edge-midpoints="false"
     inkscape:bbox-nodes="true"
     inkscape:snap-bbox-midpoints="false"
     inkscape:snap-global="true"
     inkscape:snap-nodes="false" />
  <metadata
     id="metadata5">
    <rdf:RDF>
      <cc:Work
         rdf:about="">
        <dc:format>image/svg+xml</dc:format>
        <dc:type
           rdf:resource="http://purl.org/dc/dcmitype/StillImage" />
        <dc:title />
      </cc:Work>
    </rdf:RDF>
  </metadata>
  <g
     inkscape:label="Layer 1"
     inkscape:groupmode="layer"
     id="layer1"
     transform="translate(0,-197)">
    <rect
       style="opacity:1;fill:#e6e6e6;fill-opacity:1;stroke:#000000;stroke-width:1.60000002;stroke-linecap:round;stroke-linejoin:round;stroke-miterlimit:4;stroke-dasharray:none;stroke-opacity:1;paint-order:markers stroke fill"
       id="rect1068"
       width="98.400002"
       height="70.213135"
       x="0.79999924"
       y="211.89343"
       rx="10" />
    <g
       id="g1649"
       transform="translate(4.8001358e-5,2.05e-4)">
      <path
         sodipodi:nodetypes="ssscccssssccss"
         inkscape:connector-curvature="0"
         id="rect944"
         d="m 7.1711385,217.02875 c -1.4243341,0 -2.5709025,1.14657 -2.5709025,2.5709 v 7.71529 c 0,0.73634 0.3081367,1.39663 0.8009845,1.86449 0.033825,0.0358 0.068559,0.0705 0.1043866,0.10439 0.2038948,0.20149 0.4022423,0.40344 0.6009968,0.60099 0.4678556,0.49285 1.1281463,0.80099 1.8644856,0.80099 h 7.7152915 c 1.424334,0 2.570902,-1.14657 2.570902,-2.5709 v -7.7153 c 0,-0.73911 -0.310556,-1.4015 -0.806669,-1.86965 -0.234655,-0.23369 -0.465206,-0.46682 -0.695565,-0.69556 -0.468096,-0.49554 -1.130513,-0.80564 -1.869136,-0.80564 z"
         style="opacity:1;fill:#000000;fill-opacity:1;stroke:none;stroke-width:0.14919187;stroke-linecap:round;stroke-linejoin:round;stroke-miterlimit:4;stroke-dasharray:none;stroke-opacity:1;paint-order:markers stroke fill" />
      <path
         style="opacity:1;fill:#000000;fill-opacity:1;stroke:none;stroke-width:0.14919187;stroke-linecap:round;stroke-linejoin:round;stroke-miterlimit:4;stroke-dasharray:none;stroke-opacity:1;paint-order:markers stroke fill"
         d="m 22.599568,217.02859 c -1.424334,0 -2.570902,1.14657 -2.570902,2.5709 v 7.71529 c 0,0.73634 0.308136,1.39663 0.800984,1.86449 0.03383,0.0358 0.06856,0.0705 0.104387,0.10439 0.203895,0.20149 0.402242,0.40344 0.600997,0.60099 0.467855,0.49285 1.128146,0.80099 1.864485,0.80099 h 7.715291 c 1.424335,0 2.570903,-1.14657 2.570903,-2.5709 v -7.71529 c 0,-0.73912 -0.310557,-1.40151 -0.806669,-1.86966 -0.234655,-0.23369 -0.465207,-0.46682 -0.695565,-0.69556 -0.468096,-0.49554 -1.130513,-0.80564 -1.869136,-0.80564 z"
         id="path1514"
         inkscape:connector-curvature="0"
         sodipodi:nodetypes="ssscccssssccss" />
      <path
         sodipodi:nodetypes="ssscccssssccss"
         inkscape:connector-curvature="0"
         id="path1516"
         d="m 38.028044,217.02864 c -1.424334,0 -2.570902,1.14657 -2.570902,2.5709 v 7.71529 c 0,0.73634 0.308136,1.39663 0.800984,1.86449 0.03383,0.0358 0.06856,0.0705 0.104387,0.10439 0.203895,0.20149 0.402242,0.40344 0.600997,0.60099 0.467855,0.49285 1.128146,0.80099 1.864485,0.80099 h 7.715291 c 1.424335,0 2.570903,-1.14657 2.570903,-2.5709 v -7.71529 c 0,-0.73912 -0.310557,-1.40151 -0.806669,-1.86966 -0.234655,-0.23369 -0.465207,-0.46682 -0.695565,-0.69556 -0.468096,-0.49554 -1.130513,-0.80564 -1.869136,-0.80564 z"
         style="opacity:1;fill:#000000;fill-opacity:1;stroke:none;stroke-width:0.14919187;stroke-linecap:round;stroke-linejoin:round;stroke-miterlimit:4;stroke-dasharray:none;stroke-opacity:1;paint-order:markers stroke fill" />
      <path
         style="opacity:1;fill:#000000;fill-opacity:1;stroke:none;stroke-width:0.14919187;stroke-linecap:round;stroke-linejoin:round;stroke-miterlimit:4;stroke-dasharray:none;stroke-opacity:1;paint-order:markers stroke fill"
         d="m 53.456614,217.02864 c -1.424334,0 -2.570902,1.14657 -2.570902,2.5709 v 7.71529 c 0,0.73634 0.308136,1.39663 0.800984,1.86449 0.03383,0.0358 0.06856,0.0705 0.104388,0.10439 0.203895,0.20149 0.402242,0.40344 0.600997,0.60099 0.467855,0.49285 1.128146,0.80099 1.864485,0.80099 h 7.715291 c 1.424335,0 2.570902,-1.14657 2.570902,-2.5709 v -7.71529 c 0,-0.73912 -0.310557,-1.40151 -0.806669,-1.86966 -0.234654,-0.23369 -0.465206,-0.46682 -0.695564,-0.69556 -0.468096,-0.49554 -1.130513,-0.80564 -1.869136,-0.80564 z"
         id="path1518"
         inkscape:connector-curvature="0"
         sodipodi:nodetypes="ssscccssssccss" />
      <path
         sodipodi:nodetypes="ssscccssssccss"
         inkscape:connector-curvature="0"
         id="path1520"
         d="m 68.885188,217.02864 c -1.424334,0 -2.570902,1.14657 -2.570902,2.5709 v 7.71529 c 0,0.73634 0.308136,1.39663 0.800984,1.86449 0.03383,0.0358 0.06856,0.0705 0.104388,0.10439 0.203895,0.20149 0.402242,0.40344 0.600997,0.60099 0.467855,0.49285 1.128146,0.80099 1.864485,0.80099 h 7.715291 c 1.424335,0 2.570902,-1.14657 2.570902,-2.5709 v -7.71529 c 0,-0.73912 -0.310557,-1.40151 -0.806669,-1.86966 -0.234654,-0.23369 -0.465206,-0.46682 -0.695564,-0.69556 -0.468096,-0.49554 -1.130513,-0.80564 -1.869136,-0.80564 z"
         style="opacity:1;fill:#000000;fill-opacity:1;stroke:none;stroke-width:0.14919187;stroke-linecap:round;stroke-linejoin:round;stroke-miterlimit:4;stroke-dasharray:none;stroke-opacity:1;paint-order:markers stroke fill" />
      <path
         style="opacity:1;fill:#000000;fill-opacity:1;stroke:none;stroke-width:0.14919187;stroke-linecap:round;stroke-linejoin:round;stroke-miterlimit:4;stroke-dasharray:none;stroke-opacity:1;paint-order:markers stroke fill"
         d="m 84.313761,217.02864 c -1.424334,0 -2.570902,1.14657 -2.570902,2.5709 v 7.71529 c 0,0.73634 0.308136,1.39663 0.800984,1.86449 0.03383,0.0358 0.06856,0.0705 0.104388,0.10439 0.203895,0.20149 0.402242,0.40344 0.600997,0.60099 0.467855,0.49285 1.128146,0.80099 1.864485,0.80099 h 7.715291 c 1.424335,0 2.570902,-1.14657 2.570902,-2.5709 v -7.71529 c 0,-0.73912 -0.310557,-1.40151 -0.806669,-1.86966 -0.234654,-0.23369 -0.465206,-0.46682 -0.695564,-0.69556 -0.468096,-0.49554 -1.130513,-0.80564 -1.869136,-0.80564 z"
         id="path1522"
         inkscape:connector-curvature="0"
         sodipodi:nodetypes="ssscccssssccss" />
      <path
         sodipodi:nodetypes="ssscccssssccss"
         inkscape:connector-curvature="0"
         id="path1524"
         d="m 76.599475,232.45722 c -1.424334,0 -2.570902,1.14657 -2.570902,2.5709 v 7.71529 c 0,0.73634 0.308136,1.39663 0.800984,1.86449 0.03383,0.0358 0.06856,0.0705 0.104388,0.10439 0.203895,0.20149 0.402242,0.40344 0.600997,0.60099 0.467855,0.49285 1.128146,0.80099 1.864485,0.80099 h 7.715291 c 1.424335,0 2.570902,-1.14657 2.570902,-2.5709 v -7.71529 c 0,-0.73912 -0.310557,-1.40151 -0.806669,-1.86966 -0.234654,-0.23369 -0.465206,-0.46682 -0.695564,-0.69556 -0.468096,-0.49554 -1.130513,-0.80564 -1.869136,-0.80564 z"
         style="opacity:1;fill:#000000;fill-opacity:1;stroke:none;stroke-width:0.14919187;stroke-linecap:round;stroke-linejoin:round;stroke-miterlimit:4;stroke-dasharray:none;stroke-opacity:1;paint-order:markers stroke fill" />
      <path
         style="opacity:1;fill:#000000;fill-opacity:1;stroke:none;stroke-width:0.14919187;stroke-linecap:round;stroke-linejoin:round;stroke-miterlimit:4;stroke-dasharray:none;stroke-opacity:1;paint-order:markers stroke fill"
         d="m 14.885186,232.45722 c -1.424334,0 -2.570902,1.14657 -2.570902,2.5709 v 7.71529 c 0,0.73634 0.308136,1.39663 0.800984,1.86449 0.03383,0.0358 0.06856,0.0705 0.104388,0.10439 0.203895,0.20149 0.402242,0.40344 0.600997,0.60099 0.467855,0.49285 1.128146,0.80099 1.864485,0.80099 h 7.715291 c 1.424335,0 2.570902,-1.14657 2.570902,-2.5709 v -7.71529 c 0,-0.73912 -0.310557,-1.40151 -0.806669,-1.86966 -0.234654,-0.23369 -0.465206,-0.46682 -0.695564,-0.69556 -0.468096,-0.49554 -1.130513,-0.80564 -1.869136,-0.80564 z"
         id="path1526"
         inkscape:connector-curvature="0"
         sodipodi:nodetypes="ssscccssssccss" />
      <path
         sodipodi:nodetypes="ssscccssssccss"
         inkscape:connector-curvature="0"
         id="path1528"
         d="m 7.1709001,247.88578 c -1.424334,0 -2.570902,1.14657 -2.570902,2.5709 v 7.71529 c 0,0.73634 0.308136,1.39663 0.800984,1.86449 0.03383,0.0358 0.06856,0.0705 0.104388,0.10439 0.203895,0.20149 0.402242,0.40344 0.600997,0.60099 0.467855,0.49285 1.128146,0.80099 1.864485,0.80099 h 7.7152909 c 1.424335,0 2.570902,-1.14657 2.570902,-2.5709 v -7.71529 c 0,-0.73912 -0.310557,-1.40151 -0.806669,-1.86966 -0.234654,-0.23369 -0.465206,-0.46682 -0.695564,-0.69556 -0.468096,-0.49554 -1.130513,-0.80564 -1.869136,-0.80564 z"
         style="opacity:1;fill:#000000;fill-opacity:1;stroke:none;stroke-width:0.14919187;stroke-linecap:round;stroke-linejoin:round;stroke-miterlimit:4;stroke-dasharray:none;stroke-opacity:1;paint-order:markers stroke fill" />
      <path
         style="opacity:1;fill:#000000;fill-opacity:1;stroke:none;stroke-width:0.14919187;stroke-linecap:round;stroke-linejoin:round;stroke-miterlimit:4;stroke-dasharray:none;stroke-opacity:1;paint-order:markers stroke fill"
         d="m 22.599473,247.88578 c -1.424334,0 -2.570902,1.14657 -2.570902,2.5709 v 7.71529 c 0,0.73634 0.308136,1.39663 0.800984,1.86449 0.03383,0.0358 0.06856,0.0705 0.104388,0.10439 0.203895,0.20149 0.402242,0.40344 0.600997,0.60099 0.467855,0.49285 1.128146,0.80099 1.864485,0.80099 h 7.715291 c 1.424335,0 2.570902,-1.14657 2.570902,-2.5709 v -7.71529 c 0,-0.73912 -0.310557,-1.40151 -0.806669,-1.86966 -0.234654,-0.23369 -0.465206,-0.46682 -0.695564,-0.69556 -0.468096,-0.49554 -1.130513,-0.80564 -1.869136,-0.80564 z"
         id="path1530"
         inkscape:connector-curvature="0"
         sodipodi:nodetypes="ssscccssssccss" />
      <path
         sodipodi:nodetypes="ssscccssssccss"
         inkscape:connector-curvature="0"
         id="path1532"
         d="m 38.028044,247.88578 c -1.424334,0 -2.570902,1.14657 -2.570902,2.5709 v 7.71529 c 0,0.73634 0.308136,1.39663 0.800984,1.86449 0.03383,0.0358 0.06856,0.0705 0.104388,0.10439 0.203895,0.20149 0.402242,0.40344 0.600997,0.60099 0.467855,0.49285 1.128146,0.80099 1.864485,0.80099 h 7.715291 c 1.424335,0 2.570902,-1.14657 2.570902,-2.5709 v -7.71529 c 0,-0.73912 -0.310557,-1.40151 -0.806669,-1.86966 -0.234654,-0.23369 -0.465206,-0.46682 -0.695564,-0.69556 -0.468096,-0.49554 -1.130513,-0.80564 -1.869136,-0.80564 z"
         style="opacity:1;fill:#000000;fill-opacity:1;stroke:none;stroke-width:0.14919187;stroke-linecap:round;stroke-linejoin:round;stroke-miterlimit:4;stroke-dasharray:none;stroke-opacity:1;paint-order:markers stroke fill" />
      <path
         style="opacity:1;fill:#000000;fill-opacity:1;stroke:none;stroke-width:0.14919187;stroke-linecap:round;stroke-linejoin:round;stroke-miterlimit:4;stroke-dasharray:none;stroke-opacity:1;paint-order:markers stroke fill"
         d="m 53.456614,247.88578 c -1.424334,0 -2.570902,1.14657 -2.570902,2.5709 v 7.71529 c 0,0.73634 0.308136,1.39663 0.800984,1.86449 0.03383,0.0358 0.06856,0.0705 0.104388,0.10439 0.203895,0.20149 0.402242,0.40344 0.600997,0.60099 0.467855,0.49285 1.128146,0.80099 1.864485,0.80099 h 7.715291 c 1.424335,0 2.570902,-1.14657 2.570902,-2.5709 v -7.71529 c 0,-0.73912 -0.310557,-1.40151 -0.806669,-1.86966 -0.234654,-0.23369 -0.465206,-0.46682 -0.695564,-0.69556 -0.468096,-0.49554 -1.130513,-0.80564 -1.869136,-0.80564 z"
         id="path1534"
         inkscape:connector-curvature="0"
         sodipodi:nodetypes="ssscccssssccss" />
      <path
         sodipodi:nodetypes="ssscccssssccss"
         inkscape:connector-curvature="0"
         id="path1536"
         d="m 68.885188,247.88578 c -1.424334,0 -2.570902,1.14657 -2.570902,2.5709 v 7.71529 c 0,0.73634 0.308136,1.39663 0.800984,1.86449 0.03383,0.0358 0.06856,0.0705 0.104388,0.10439 0.203895,0.20149 0.402242,0.40344 0.600997,0.60099 0.467855,0.49285 1.128146,0.80099 1.864485,0.80099 h 7.715291 c 1.424335,0 2.570902,-1.14657 2.570902,-2.5709 v -7.71529 c 0,-0.73912 -0.310557,-1.40151 -0.806669,-1.86966 -0.234654,-0.23369 -0.465206,-0.46682 -0.695564,-0.69556 -0.468096,-0.49554 -1.130513,-0.80564 -1.869136,-0.80564 z"
         style="opacity:1;fill:#000000;fill-opacity:1;stroke:none;stroke-width:0.14919187;stroke-linecap:round;stroke-linejoin:round;stroke-miterlimit:4;stroke-dasharray:none;stroke-opacity:1;paint-order:markers stroke fill" />
      <path
         style="opacity:1;fill:#000000;fill-opacity:1;stroke:none;stroke-width:0.14919187;stroke-linecap:round;stroke-linejoin:round;stroke-miterlimit:4;stroke-dasharray:none;stroke-opacity:1;paint-order:markers stroke fill"
         d="m 84.313761,247.88578 c -1.424334,0 -2.570902,1.14657 -2.570902,2.5709 v 7.71529 c 0,0.73634 0.308136,1.39663 0.800984,1.86449 0.03383,0.0358 0.06856,0.0705 0.104388,0.10439 0.203895,0.20149 0.402242,0.40344 0.600997,0.60099 0.467855,0.49285 1.128146,0.80099 1.864485,0.80099 h 7.715291 c 1.424335,0 2.570902,-1.14657 2.570902,-2.5709 v -7.71529 c 0,-0.73912 -0.310557,-1.40151 -0.806669,-1.86966 -0.234654,-0.23369 -0.465206,-0.46682 -0.695564,-0.69556 -0.468096,-0.49554 -1.130513,-0.80564 -1.869136,-0.80564 z"
         id="path1538"
         inkscape:connector-curvature="0"
         sodipodi:nodetypes="ssscccssssccss" />
    </g>
    <g
       id="g1550"
       transform="translate(4.8001358e-5,2.05e-4)">
      <path
         sodipodi:nodetypes="ssssscccccsssssssssccccccccss"
         style="opacity:1;fill:#000000;fill-opacity:1;stroke:none;stroke-width:0.14919187;stroke-linecap:round;stroke-linejoin:round;stroke-miterlimit:4;stroke-dasharray:none;stroke-opacity:1;paint-order:markers stroke fill"
         d="m 30.714405,232.8569 c -1.424573,0 -2.57142,1.14685 -2.57142,2.57142 v 7.71426 c 0,0.56326 -0.265043,0.70893 0.03982,1.13164 0.466174,0.64637 1.670294,1.43978 2.531601,1.43978 h 1.285708 v -5.14284 h 5.142838 l -0.799985,4.34284 0.799985,0.8 h 1.285711 c 1.42457,0 2.57142,-1.14685 2.57142,-2.57142 v -7.71426 c 0,-0.85149 -0.900842,-2.14165 -1.534711,-2.6091 -0.426609,-0.31461 -0.463633,0.0377 -1.036709,0.0377 z m 2.325954,2.57142 h 3.06183 c 0.576434,0 1.040762,0.54133 1.040762,1.21388 v 0.0713 0.0718 1.2144 h -1.040762 -3.06183 -1.040246 v -1.2144 -0.0718 -0.0713 c 0,-0.67254 0.463812,-1.21388 1.040246,-1.21388 z"
         id="path1310"
         inkscape:connector-curvature="0" />
      <path
         inkscape:connector-curvature="0"
         id="path882"
         d="m 29.91442,232.0569 c -1.424573,0 -2.57142,1.14685 -2.57142,2.57142 v 7.71426 c 0,1.42457 1.146847,2.57142 2.57142,2.57142 h 1.285708 v -5.14284 h 5.142838 v 5.14284 h 1.285711 c 1.42457,0 2.57142,-1.14685 2.57142,-2.57142 v -7.71426 c 0,-1.42457 -1.14685,-2.57142 -2.57142,-2.57142 z m 2.325954,2.57142 h 3.06183 c 0.576434,0 1.040762,0.54133 1.040762,1.21388 v 0.0713 0.0718 1.2144 h -1.040762 -3.06183 -1.040246 v -1.2144 -0.0718 -0.0713 c 0,-0.67254 0.463812,-1.21388 1.040246,-1.21388 z"
         style="opacity:1;fill:#b3b3b3;fill-opacity:1;stroke:none;stroke-width:0.14919187;stroke-linecap:round;stroke-linejoin:round;stroke-miterlimit:4;stroke-dasharray:none;stroke-opacity:1;paint-order:markers stroke fill" />
    </g>
    <g
       id="g1546"
       transform="translate(4.8001358e-5,2.05e-4)">
      <path
         sodipodi:nodetypes="csccccccsscssssccccccsscsscc"
         style="opacity:1;fill:#000000;fill-opacity:1;stroke:none;stroke-width:0.14919187;stroke-linecap:round;stroke-linejoin:round;stroke-miterlimit:4;stroke-dasharray:none;stroke-opacity:1;paint-order:markers stroke fill"
         d="m 46.14292,232.8569 c -1.424572,0 -2.571419,1.14685 -2.571419,2.57142 l -0.799985,4.34284 0.799985,0.8 h 7.466727 1.533239 v 1.2144 0.0713 0.0718 c 0,0.67255 -0.68375,1.21388 -1.533239,1.21388 h -7.466727 c 0,0.61926 -0.519946,0.4377 -0.157908,0.88061 0.470803,0.57597 1.924021,1.69081 2.729327,1.69081 h 7.714258 c 1.424569,0 2.571419,-1.14685 2.571419,-2.57142 v -5.14284 l -0.799985,-0.8 -6.666744,0.8 h -1.53324 v -1.2144 -0.0718 -0.0718 c 0,-0.67255 0.68375,-1.21336 1.53324,-1.21336 h 7.466729 c 0,-0.63272 -0.226233,-1.21065 -0.602555,-1.65765 -0.108849,-0.12929 -0.861679,-0.91413 -0.993799,-1.01967 -0.439536,-0.35112 -0.366224,0.1059 -0.975065,0.1059 z"
         id="path1312"
         inkscape:connector-curvature="0" />
      <path
         inkscape:connector-curvature="0"
         id="path884"
         d="m 45.342935,232.0569 c -1.424572,0 -2.571419,1.14685 -2.571419,2.57142 v 5.14284 h 7.466727 1.533239 v 1.2144 0.0713 0.0718 c 0,0.67255 -0.68375,1.21388 -1.533239,1.21388 h -7.466727 c 0,1.42457 1.146847,2.57142 2.571419,2.57142 h 7.714258 c 1.424569,0 2.571419,-1.14685 2.571419,-2.57142 v -5.14284 h -7.466729 -1.53324 v -1.2144 -0.0718 -0.0718 c 0,-0.67255 0.68375,-1.21336 1.53324,-1.21336 h 7.466729 c 0,-1.42457 -1.14685,-2.57142 -2.571419,-2.57142 z"
         style="opacity:1;fill:#b3b3b3;fill-opacity:1;stroke:none;stroke-width:0.14919187;stroke-linecap:round;stroke-linejoin:round;stroke-miterlimit:4;stroke-dasharray:none;stroke-opacity:1;paint-order:markers stroke fill" />
    </g>
    <g
       id="g1542"
       transform="translate(4.8001358e-5,2.05e-4)">
      <path
         sodipodi:nodetypes="ssssscccssccssccscsccssscssccccs"
         style="opacity:1;fill:#000000;fill-opacity:1;stroke:none;stroke-width:0.14919187;stroke-linecap:round;stroke-linejoin:round;stroke-miterlimit:4;stroke-dasharray:none;stroke-opacity:1;paint-order:markers stroke fill"
         d="m 60.92858,232.8569 c -0.87165,0.61787 -1.928564,0.86014 -1.928564,1.92857 v 8.99996 c 0,0.44937 -0.537742,0.19538 -0.281941,0.52256 0.352409,0.45074 1.591436,1.40601 2.210505,1.40601 h 1.928564 v -2.57142 -2.57142 h 2.571419 c 1.424572,0 2.571419,1.14685 2.571419,2.57142 l -0.799985,1.77142 0.799985,0.8 h 1.928567 c 1.068419,0 1.928563,-0.86013 1.928563,-1.92857 v -0.64285 -1.0294 -0.25631 c 0,-1.42458 -1.146333,-2.57142 -2.570903,-2.57142 1.42457,0 2.570903,-1.14635 2.570903,-2.5709 v -0.37414 -0.91209 -0.64285 c 0,-0.67845 -0.989943,-1.9628 -1.516689,-2.30637 -0.302782,-0.19749 -0.0219,0.3778 -0.411874,0.3778 h -1.928567 v 2.57142 c 0,1.42457 -1.146847,2.57142 -2.571419,2.57142 h -2.571419 v -2.57142 -2.57142 l -0.799985,-0.8 z"
         id="path1314"
         inkscape:connector-curvature="0" />
      <path
         inkscape:connector-curvature="0"
         id="path886"
         d="m 60.128595,232.0569 c -1.06843,0 -1.928564,0.86014 -1.928564,1.92857 v 8.99996 c 0,1.06844 0.860134,1.92857 1.928564,1.92857 h 1.928564 v -2.57142 -2.57142 h 2.571419 c 1.424572,0 2.571419,1.14685 2.571419,2.57142 v 2.57142 h 1.928567 c 1.068419,0 1.928563,-0.86013 1.928563,-1.92857 v -0.64285 -1.0294 -0.25631 c 0,-1.42458 -1.146333,-2.57142 -2.570903,-2.57142 1.42457,0 2.570903,-1.14635 2.570903,-2.5709 v -0.37414 -0.91209 -0.64285 c 0,-1.06843 -0.860144,-1.92857 -1.928563,-1.92857 h -1.928567 v 2.57142 c 0,1.42457 -1.146847,2.57142 -2.571419,2.57142 h -2.571419 v -2.57142 -2.57142 z"
         style="opacity:1;fill:#b3b3b3;fill-opacity:1;stroke:none;stroke-width:0.14919187;stroke-linecap:round;stroke-linejoin:round;stroke-miterlimit:4;stroke-dasharray:none;stroke-opacity:1;paint-order:markers stroke fill" />
    </g>
    <g
       id="g1653"
       transform="translate(4.8001358e-5,2.05e-4)">
      <path
         sodipodi:nodetypes="ssscccssssccss"
         inkscape:connector-curvature="0"
         id="path1618"
         d="m 14.885186,263.31395 c -1.424334,0 -2.570902,1.14657 -2.570902,2.5709 v 7.71529 c 0,0.73634 0.308136,1.39663 0.800984,1.86449 0.03383,0.0358 0.06856,0.0705 0.104388,0.10439 0.203895,0.20149 0.402242,0.40344 0.600997,0.60099 0.467855,0.49285 1.128146,0.80099 1.864485,0.80099 h 7.715291 c 1.424335,0 2.570902,-1.14657 2.570902,-2.5709 v -7.71529 c 0,-0.73912 -0.310557,-1.40151 -0.806669,-1.86966 -0.234654,-0.23369 -0.465206,-0.46682 -0.695564,-0.69556 -0.468096,-0.49554 -1.130513,-0.80564 -1.869136,-0.80564 z"
         style="opacity:1;fill:#000000;fill-opacity:1;stroke:none;stroke-width:0.14919187;stroke-linecap:round;stroke-linejoin:round;stroke-miterlimit:4;stroke-dasharray:none;stroke-opacity:1;paint-order:markers stroke fill" />
      <rect
         style="opacity:1;fill:#b3b3b3;fill-opacity:1;stroke:none;stroke-width:0.14919187;stroke-linecap:round;stroke-linejoin:round;stroke-miterlimit:4;stroke-dasharray:none;stroke-opacity:1;paint-order:markers stroke fill"
         id="rect1585"
         width="12.857143"
         height="12.857143"
         x="12.314284"
         y="263.31384"
         rx="2.5710001" />
    </g>
    <path
       style="opacity:1;fill:#000000;fill-opacity:1;stroke:none;stroke-width:0.14919187;stroke-linecap:round;stroke-linejoin:round;stroke-miterlimit:4;stroke-dasharray:none;stroke-opacity:1;paint-order:markers stroke fill"
       d="m 30.313948,263.31398 c -1.424334,0 -2.570902,1.14657 -2.570902,2.5709 v 7.71529 c 0,0.73634 0.308136,1.39663 0.800984,1.86449 0.03383,0.0358 0.06856,0.0705 0.104388,0.10439 0.203895,0.20149 0.402242,0.40344 0.600997,0.601 0.467855,0.49284 1.128146,0.80099 1.864485,0.80099 h 38.572148 c 1.424335,0 2.571,-1.14657 2.571,-2.5709 v -7.71529 c 0,-0.73912 -0.310888,-1.40151 -0.807,-1.86966 -0.234654,-0.23369 -0.464642,-0.46682 -0.695,-0.69556 -0.468096,-0.49554 -1.130377,-0.80564 -1.869,-0.80564 z"
       id="path1534-3"
       inkscape:connector-curvature="0"
       sodipodi:nodetypes="ssscccssssccss" />
    <rect
       rx="2.5710001"
       y="263.314"
       x="27.743046"
       height="12.857143"
       width="43.714287"
       id="rect888"
       style="opacity:1;fill:#b3b3b3;fill-opacity:1;stroke:none;stroke-width:0.27509621;stroke-linecap:round;stroke-linejoin:round;stroke-miterlimit:4;stroke-dasharray:none;stroke-opacity:1;paint-order:markers stroke fill" />
    <g
       id="g1616"
       transform="translate(4.8001358e-5,2.05e-4)">
      <rect
         style="opacity:1;fill:#b3b3b3;fill-opacity:1;stroke:none;stroke-width:0.14919187;stroke-linecap:round;stroke-linejoin:round;stroke-miterlimit:4;stroke-dasharray:none;stroke-opacity:1;paint-order:markers stroke fill"
         id="rect852"
         width="12.857143"
         height="12.857143"
         x="66.314285"
         y="247.88577"
         rx="2.5710001" />
      <rect
         rx="2.5710001"
         y="232.45721"
         x="12.314284"
         height="12.857143"
         width="12.857143"
         id="rect854"
         style="opacity:1;fill:#b3b3b3;fill-opacity:1;stroke:none;stroke-width:0.14919187;stroke-linecap:round;stroke-linejoin:round;stroke-miterlimit:4;stroke-dasharray:none;stroke-opacity:1;paint-order:markers stroke fill" />
      <rect
         style="opacity:1;fill:#b3b3b3;fill-opacity:1;stroke:none;stroke-width:0.14919187;stroke-linecap:round;stroke-linejoin:round;stroke-miterlimit:4;stroke-dasharray:none;stroke-opacity:1;paint-order:markers stroke fill"
         id="rect856"
         width="12.857143"
         height="12.857143"
         x="4.599998"
         y="247.88577"
         rx="2.5710001" />
      <rect
         rx="2.5710001"
         y="247.88577"
         x="20.02857"
         height="12.857143"
         width="12.857143"
         id="rect858"
         style="opacity:1;fill:#b3b3b3;fill-opacity:1;stroke:none;stroke-width:0.14919187;stroke-linecap:round;stroke-linejoin:round;stroke-miterlimit:4;stroke-dasharray:none;stroke-opacity:1;paint-order:markers stroke fill" />
      <rect
         style="opacity:1;fill:#b3b3b3;fill-opacity:1;stroke:none;stroke-width:0.14919187;stroke-linecap:round;stroke-linejoin:round;stroke-miterlimit:4;stroke-dasharray:none;stroke-opacity:1;paint-order:markers stroke fill"
         id="rect860"
         width="12.857143"
         height="12.857143"
         x="35.457142"
         y="247.88577"
         rx="2.5710001" />
      <rect
         rx="2.5710001"
         y="232.45721"
         x="74.028572"
         height="12.857143"
         width="12.857143"
         id="rect862"
         style="opacity:1;fill:#b3b3b3;fill-opacity:1;stroke:none;stroke-width:0.14919187;stroke-linecap:round;stroke-linejoin:round;stroke-miterlimit:4;stroke-dasharray:none;stroke-opacity:1;paint-order:markers stroke fill" />
      <rect
         rx="2.5710001"
         y="247.88577"
         x="50.885712"
         height="12.857143"
         width="12.857143"
         id="rect864"
         style="opacity:1;fill:#b3b3b3;fill-opacity:1;stroke:none;stroke-width:0.14919187;stroke-linecap:round;stroke-linejoin:round;stroke-miterlimit:4;stroke-dasharray:none;stroke-opacity:1;paint-order:markers stroke fill" />
      <rect
         rx="2.5710001"
         y="217.02864"
         x="66.314285"
         height="12.857143"
         width="12.857143"
         id="rect866"
         style="opacity:1;fill:#b3b3b3;fill-opacity:1;stroke:none;stroke-width:0.14919187;stroke-linecap:round;stroke-linejoin:round;stroke-miterlimit:4;stroke-dasharray:none;stroke-opacity:1;paint-order:markers stroke fill" />
      <rect
         rx="2.5710001"
         y="217.02864"
         x="4.599998"
         height="12.857143"
         width="12.857143"
         id="rect868"
         style="opacity:1;fill:#b3b3b3;fill-opacity:1;stroke:none;stroke-width:0.14919187;stroke-linecap:round;stroke-linejoin:round;stroke-miterlimit:4;stroke-dasharray:none;stroke-opacity:1;paint-order:markers stroke fill" />
      <rect
         style="opacity:1;fill:#b3b3b3;fill-opacity:1;stroke:none;stroke-width:0.14919187;stroke-linecap:round;stroke-linejoin:round;stroke-miterlimit:4;stroke-dasharray:none;stroke-opacity:1;paint-order:markers stroke fill"
         id="rect870"
         width="12.857143"
         height="12.857143"
         x="20.02857"
         y="217.02864"
         rx="2.5710001" />
      <rect
         rx="2.5710001"
         y="217.02864"
         x="35.457142"
         height="12.857143"
         width="12.857143"
         id="rect872"
         style="opacity:1;fill:#b3b3b3;fill-opacity:1;stroke:none;stroke-width:0.14919187;stroke-linecap:round;stroke-linejoin:round;stroke-miterlimit:4;stroke-dasharray:none;stroke-opacity:1;paint-order:markers stroke fill" />
      <rect
         style="opacity:1;fill:#b3b3b3;fill-opacity:1;stroke:none;stroke-width:0.14919187;stroke-linecap:round;stroke-linejoin:round;stroke-miterlimit:4;stroke-dasharray:none;stroke-opacity:1;paint-order:markers stroke fill"
         id="rect874"
         width="12.857143"
         height="12.857143"
         x="50.885712"
         y="217.02864"
         rx="2.5710001" />
      <rect
         style="opacity:1;fill:#b3b3b3;fill-opacity:1;stroke:none;stroke-width:0.14919187;stroke-linecap:round;stroke-linejoin:round;stroke-miterlimit:4;stroke-dasharray:none;stroke-opacity:1;paint-order:markers stroke fill"
         id="rect876"
         width="12.857143"
         height="12.857143"
         x="81.742859"
         y="217.02864"
         rx="2.5710001" />
      <rect
         rx="2.5710001"
         y="247.88577"
         x="81.742859"
         height="12.857143"
         width="12.857143"
         id="rect878"
         style="opacity:1;fill:#b3b3b3;fill-opacity:1;stroke:none;stroke-width:0.14919187;stroke-linecap:round;stroke-linejoin:round;stroke-miterlimit:4;stroke-dasharray:none;stroke-opacity:1;paint-order:markers stroke fill" />
    </g>
    <g
       id="g1659"
       transform="translate(61.714764,2.05e-4)">
      <path
         style="opacity:1;fill:#000000;fill-opacity:1;stroke:none;stroke-width:0.14919187;stroke-linecap:round;stroke-linejoin:round;stroke-miterlimit:4;stroke-dasharray:none;stroke-opacity:1;paint-order:markers stroke fill"
         d="m 14.885186,263.31395 c -1.424334,0 -2.570902,1.14657 -2.570902,2.5709 v 7.71529 c 0,0.73634 0.308136,1.39663 0.800984,1.86449 0.03383,0.0358 0.06856,0.0705 0.104388,0.10439 0.203895,0.20149 0.402242,0.40344 0.600997,0.60099 0.467855,0.49285 1.128146,0.80099 1.864485,0.80099 h 7.715291 c 1.424335,0 2.570902,-1.14657 2.570902,-2.5709 v -7.71529 c 0,-0.73912 -0.310557,-1.40151 -0.806669,-1.86966 -0.234654,-0.23369 -0.465206,-0.46682 -0.695564,-0.69556 -0.468096,-0.49554 -1.130513,-0.80564 -1.869136,-0.80564 z"
         id="path1655"
         inkscape:connector-curvature="0"
         sodipodi:nodetypes="ssscccssssccss" />
      <rect
         rx="2.5710001"
         y="263.31384"
         x="12.314284"
         height="12.857143"
         width="12.857143"
         id="rect1657"
         style="opacity:1;fill:#b3b3b3;fill-opacity:1;stroke:none;stroke-width:0.14919187;stroke-linecap:round;stroke-linejoin:round;stroke-miterlimit:4;stroke-dasharray:none;stroke-opacity:1;paint-order:markers stroke fill" />
    </g>
  </g>
</svg>
